<!DOCTYPE svg PUBLIC "-//W3C//DTD SVG 1.1//EN" "http://www.w3.org/Graphics/SVG/1.1/DTD/svg11.dtd">
<!-- Uploaded to: SVG Repo, www.svgrepo.com, Transformed by: SVG Repo Mixer Tools -->
<svg fill="#657079" width="800px" height="800px" viewBox="-20.48 -20.48 552.96 552.96" id="_79_Circle-Half" data-name="79 Circle-Half" xmlns="http://www.w3.org/2000/svg" stroke="#657079" stroke-width="5.12">
<g id="SVGRepo_bgCarrier" stroke-width="0"/>
<g id="SVGRepo_tracerCarrier" stroke-linecap="round" stroke-linejoin="round" stroke="#0a0a0a" stroke-width="23.552"> <path id="Path_112" data-name="Path 112" d="M256,512C114.625,512,0,397.375,0,256S114.625,0,256,0,512,114.625,512,256,397.375,512,256,512Zm0-448C149.969,64,64,149.969,64,256s85.969,192,192,192,192-85.969,192-192S362.031,64,256,64ZM128,256A128.006,128.006,0,0,1,256,128V384A128.006,128.006,0,0,1,128,256Z" fill-rule="evenodd"/> </g>
<g id="SVGRepo_iconCarrier"> <path id="Path_112" data-name="Path 112" d="M256,512C114.625,512,0,397.375,0,256S114.625,0,256,0,512,114.625,512,256,397.375,512,256,512Zm0-448C149.969,64,64,149.969,64,256s85.969,192,192,192,192-85.969,192-192S362.031,64,256,64ZM128,256A128.006,128.006,0,0,1,256,128V384A128.006,128.006,0,0,1,128,256Z" fill-rule="evenodd"/> </g>
</svg>