<svg id="Layer_1" data-name="Layer 1" xmlns="http://www.w3.org/2000/svg" xmlns:xlink="http://www.w3.org/1999/xlink" viewBox="0 0 1500 1000"><defs><style>.cls-1{fill:none;}.cls-2{clip-path:url(#clip-path);}.cls-3{fill:#ce1126;}.cls-4{fill:#fff;}.cls-5{fill:#007a3d;}</style><clipPath id="clip-path"><path class="cls-1" d="M1124.48,668.65V331.35A82.36,82.36,0,0,0,1083.3,260L791.18,91.37a82.32,82.32,0,0,0-82.36,0L416.7,260a82.36,82.36,0,0,0-41.18,71.33v337.3A82.36,82.36,0,0,0,416.7,740L708.82,908.63a82.32,82.32,0,0,0,82.36,0L1083.3,740A82.36,82.36,0,0,0,1124.48,668.65Z"/></clipPath></defs><title>Palestine</title><g class="cls-2"><rect class="cls-3" x="99.64" y="66.43" width="1300.73" height="867.15"/><rect id="_4" data-name="4" x="375.52" y="62.38" width="748.96" height="292.94"/><rect id="_3" data-name="3" class="cls-4" x="375.52" y="355.32" width="748.96" height="292.94"/><rect id="_2" data-name="2" class="cls-5" x="375.52" y="648.26" width="748.96" height="292.94"/><path id="_1" data-name="1" class="cls-3" d="M375.52,58.8,750,500,375.52,941.2Z"/></g></svg>